<svg xmlns="http://www.w3.org/2000/svg" xmlns:xlink="http://www.w3.org/1999/xlink" width="262" height="78" viewBox="0 0 262 78">
  <defs>
    <filter id="five-prallelogram" x="0" y="0" width="262" height="78" filterUnits="userSpaceOnUse">
      <feOffset dx="6" dy="3" input="SourceAlpha"/>
      <feGaussianBlur stdDeviation="5" result="blur"/>
      <feFlood flood-opacity="0.161" result="color"/>
      <feComposite operator="out" in="SourceGraphic" in2="blur"/>
      <feComposite operator="in" in="color"/>
      <feComposite operator="in" in2="SourceGraphic"/>
    </filter>
  </defs>
  <g data-type="innerShadowGroup">
    <g id="five-prallelogram-2" data-name="five-prallelogram" transform="translate(24.453)" fill="#c7e8f7">
      <path d="M 201.8761901855469 77.5 L -23.79693984985352 77.5 L -2.684865713119507 0.7317355275154114 L 201.8767700195312 0.5 C 206.6187286376953 0.5 211.2196044921875 1.515599966049194 215.551025390625 3.518633365631104 C 219.7381286621094 5.454933166503906 223.4993896484375 8.22783374786377 226.7303314208984 11.76029968261719 C 229.9641571044922 15.29596710205078 232.5034027099609 19.41393280029297 234.2774963378906 23.99983406066895 C 236.1152038574219 28.75020027160645 237.0469970703125 33.79696655273438 237.0469970703125 39 C 237.0469970703125 44.20303344726562 236.1152038574219 49.24980163574219 234.2774963378906 54.00016784667969 C 232.5034027099609 58.58606719970703 229.9641571044922 62.70403289794922 226.7303314208984 66.23970031738281 C 223.4993896484375 69.77216339111328 219.7381286621094 72.54506683349609 215.551025390625 74.48136901855469 C 211.2196044921875 76.48439788818359 206.6187286376953 77.5 201.8761901855469 77.5 Z" stroke="none"/>
      <path d="M 201.8770446777344 1 L 201.8773498535156 1 L -2.303695678710938 1.231307983398438 L -23.14088439941406 77 L 201.876220703125 77 C 206.5457458496094 77 211.0760192871094 75.99993133544922 215.3411560058594 74.02753448486328 C 219.4677124023438 72.11923217773438 223.1754455566406 69.385498046875 226.3613433837891 65.90226745605469 C 229.5530853271484 62.41263198852539 232.0595855712891 58.34749984741211 233.8111419677734 53.81976699829102 C 235.6265106201172 49.12716674804688 236.5469818115234 44.1411018371582 236.5469818115234 39 C 236.5469818115234 33.8588981628418 235.6265106201172 28.87283325195312 233.8111419677734 24.18023300170898 C 232.0595855712891 19.65250015258789 229.5530853271484 15.58736801147461 226.3613433837891 12.09773254394531 C 223.1754455566406 8.614501953125 219.4677124023438 5.880767822265625 215.3411560058594 3.972465515136719 C 211.0762786865234 2.000190734863281 206.5462646484375 1.0001220703125 201.8770446777344 1 M 201.876220703125 0 C 221.5766448974609 0 237.5469818115234 17.46089935302734 237.5469818115234 39 C 237.5469818115234 60.53910064697266 221.5766448974609 78 201.876220703125 78 L -24.45301818847656 78 L -3.066055297851562 0.2321701049804688 L 201.876220703125 0 Z" stroke="none"/>
    </g>
    <g transform="matrix(1, 0, 0, 1, 0, 0)" filter="url(#five-prallelogram)">
      <g id="five-prallelogram-3" data-name="five-prallelogram" transform="translate(24.45)" fill="#fff">
        <path d="M 201.8761901855469 77.5 L -23.79693984985352 77.5 L -2.684865713119507 0.7317355275154114 L 201.8767700195312 0.5 C 206.6187286376953 0.5 211.2196044921875 1.515599966049194 215.551025390625 3.518633365631104 C 219.7381286621094 5.454933166503906 223.4993896484375 8.22783374786377 226.7303314208984 11.76029968261719 C 229.9641571044922 15.29596710205078 232.5034027099609 19.41393280029297 234.2774963378906 23.99983406066895 C 236.1152038574219 28.75020027160645 237.0469970703125 33.79696655273438 237.0469970703125 39 C 237.0469970703125 44.20303344726562 236.1152038574219 49.24980163574219 234.2774963378906 54.00016784667969 C 232.5034027099609 58.58606719970703 229.9641571044922 62.70403289794922 226.7303314208984 66.23970031738281 C 223.4993896484375 69.77216339111328 219.7381286621094 72.54506683349609 215.551025390625 74.48136901855469 C 211.2196044921875 76.48439788818359 206.6187286376953 77.5 201.8761901855469 77.5 Z" stroke="none"/>
        <path d="M 201.8770446777344 1 L 201.8773498535156 1 L -2.303695678710938 1.231307983398438 L -23.14088439941406 77 L 201.876220703125 77 C 206.5457458496094 77 211.0760192871094 75.99993133544922 215.3411560058594 74.02753448486328 C 219.4677124023438 72.11923217773438 223.1754455566406 69.385498046875 226.3613433837891 65.90226745605469 C 229.5530853271484 62.41263198852539 232.0595855712891 58.34749984741211 233.8111419677734 53.81976699829102 C 235.6265106201172 49.12716674804688 236.5469818115234 44.1411018371582 236.5469818115234 39 C 236.5469818115234 33.8588981628418 235.6265106201172 28.87283325195312 233.8111419677734 24.18023300170898 C 232.0595855712891 19.65250015258789 229.5530853271484 15.58736801147461 226.3613433837891 12.09773254394531 C 223.1754455566406 8.614501953125 219.4677124023438 5.880767822265625 215.3411560058594 3.972465515136719 C 211.0762786865234 2.000190734863281 206.5462646484375 1.0001220703125 201.8770446777344 1 M 201.876220703125 0 C 221.5766448974609 0 237.5469818115234 17.46089935302734 237.5469818115234 39 C 237.5469818115234 60.53910064697266 221.5766448974609 78 201.876220703125 78 L -24.45301818847656 78 L -3.066055297851562 0.2321701049804688 L 201.876220703125 0 Z" stroke="none"/>
      </g>
    </g>
    <g id="five-prallelogram-4" data-name="five-prallelogram" transform="translate(24.453)" fill="none">
      <path d="M 201.8761901855469 77.5 L -23.79693984985352 77.5 L -2.684865713119507 0.7317355275154114 L 201.8767700195312 0.5 C 206.6187286376953 0.5 211.2196044921875 1.515599966049194 215.551025390625 3.518633365631104 C 219.7381286621094 5.454933166503906 223.4993896484375 8.22783374786377 226.7303314208984 11.76029968261719 C 229.9641571044922 15.29596710205078 232.5034027099609 19.41393280029297 234.2774963378906 23.99983406066895 C 236.1152038574219 28.75020027160645 237.0469970703125 33.79696655273438 237.0469970703125 39 C 237.0469970703125 44.20303344726562 236.1152038574219 49.24980163574219 234.2774963378906 54.00016784667969 C 232.5034027099609 58.58606719970703 229.9641571044922 62.70403289794922 226.7303314208984 66.23970031738281 C 223.4993896484375 69.77216339111328 219.7381286621094 72.54506683349609 215.551025390625 74.48136901855469 C 211.2196044921875 76.48439788818359 206.6187286376953 77.5 201.8761901855469 77.5 Z" stroke="none"/>
      <path d="M 201.8770446777344 1 L 201.8773498535156 1 L -2.303695678710938 1.231307983398438 L -23.14088439941406 77 L 201.876220703125 77 C 206.5457458496094 77 211.0760192871094 75.99993133544922 215.3411560058594 74.02753448486328 C 219.4677124023438 72.11923217773438 223.1754455566406 69.385498046875 226.3613433837891 65.90226745605469 C 229.5530853271484 62.41263198852539 232.0595855712891 58.34749984741211 233.8111419677734 53.81976699829102 C 235.6265106201172 49.12716674804688 236.5469818115234 44.1411018371582 236.5469818115234 39 C 236.5469818115234 33.8588981628418 235.6265106201172 28.87283325195312 233.8111419677734 24.18023300170898 C 232.0595855712891 19.65250015258789 229.5530853271484 15.58736801147461 226.3613433837891 12.09773254394531 C 223.1754455566406 8.614501953125 219.4677124023438 5.880767822265625 215.3411560058594 3.972465515136719 C 211.0762786865234 2.000190734863281 206.5462646484375 1.0001220703125 201.8770446777344 1 M 201.876220703125 0 C 221.5766448974609 0 237.5469818115234 17.46089935302734 237.5469818115234 39 C 237.5469818115234 60.53910064697266 221.5766448974609 78 201.876220703125 78 L -24.45301818847656 78 L -3.066055297851562 0.2321701049804688 L 201.876220703125 0 Z" stroke="none" fill="#c9c9c9"/>
    </g>
  </g>
</svg>
