<svg xmlns="http://www.w3.org/2000/svg" xmlns:xlink="http://www.w3.org/1999/xlink" width="117.002" height="78.92" viewBox="0 0 117.002 78.92">
  <defs>
    <filter id="one-parallelogram" x="0" y="0" width="117.002" height="78.92" filterUnits="userSpaceOnUse">
      <feOffset dx="6" dy="3" input="SourceAlpha"/>
      <feGaussianBlur stdDeviation="5" result="blur"/>
      <feFlood flood-opacity="0.161" result="color"/>
      <feComposite operator="out" in="SourceGraphic" in2="blur"/>
      <feComposite operator="in" in="color"/>
      <feComposite operator="in" in2="SourceGraphic"/>
    </filter>
  </defs>
  <g data-type="innerShadowGroup">
    <g id="one-parallelogram-2" data-name="one-parallelogram" transform="translate(0 0.31)" fill="#c7e8f7">
      <path d="M 72.38742828369141 78.11000061035156 C 63.25287628173828 78.11000061035156 54.79253768920898 77.98229217529297 48.61505889892578 77.88905334472656 C 45.14367294311523 77.83664703369141 42.40176773071289 77.79526519775391 40.73579788208008 77.79526519775391 C 35.30135345458984 77.79526519775391 30.02990531921387 76.77251434326172 25.06787490844727 74.75540161132812 C 20.27612113952637 72.80751037597656 15.97287464141846 70.01912689208984 12.27770519256592 66.46772766113281 C 8.583935737609863 62.91766357421875 5.684136390686035 58.78423309326172 3.658859252929688 54.1822509765625 C 1.562797665596008 49.41938781738281 0.4999977052211761 44.35991287231445 0.4999977052211761 39.14434051513672 C 0.4999977052211761 33.92877197265625 1.562797665596008 28.86929512023926 3.658859252929688 24.1064338684082 C 5.684136390686035 19.50444984436035 8.583935737609863 15.371018409729 12.27770519256592 11.82095718383789 C 15.97287464141846 8.269556999206543 20.27612113952637 5.481172561645508 25.06787490844727 3.533280372619629 C 30.02990531921387 1.516172647476196 35.30135345458984 0.4934187531471252 40.73579788208008 0.4934187531471252 C 46.112060546875 0.4934187531471252 53.28164291381836 0.43437260389328 61.58332061767578 0.3660187721252441 C 71.61752319335938 0.2833879888057709 82.99053955078125 0.1897264569997787 93.27590179443359 0.1897264569997787 C 103.5352096557617 0.1897264569997787 111.1242370605469 0.2828194499015808 116.4457626342773 0.4741412997245789 C 116.2548294067383 1.443044662475586 115.5239562988281 4.257962703704834 113.4250411987305 11.48506450653076 C 111.5097198486328 18.08000373840332 108.8115539550781 27.13898849487305 105.9549789428711 36.72986602783203 C 102.0375289916992 49.88256072998047 97.60221099853516 64.77398681640625 93.84117889404297 77.80741882324219 C 87.62527465820312 78.00821685791016 80.40981292724609 78.11000061035156 72.38742828369141 78.11000061035156 Z" stroke="none"/>
      <path d="M 93.27590942382812 0.689727783203125 C 82.99258422851562 0.689727783203125 71.62067413330078 0.7833709716796875 61.58742904663086 0.8660049438476562 C 53.28464508056641 0.9343719482421875 46.11410522460938 0.9934158325195312 40.73579406738281 0.9934158325195312 C 35.3662109375 0.9934158325195312 30.15810394287109 2.003791809082031 25.25616455078125 3.996482849121094 C 20.52342987060547 5.920372009277344 16.27341461181641 8.674201965332031 12.62418365478516 12.18144989013672 C 8.97772216796875 15.68603515625 6.115333557128906 19.76594161987305 4.116508483886719 24.30783462524414 C 2.048538208007812 29.0068359375 1 33.99855804443359 1 39.14434051513672 C 1 44.29012680053711 2.048538208007812 49.2818489074707 4.116508483886719 53.98085021972656 C 6.115333557128906 58.52274322509766 8.97772216796875 62.6026496887207 12.62418365478516 66.10723114013672 C 16.27341461181641 69.61447906494141 20.52342987060547 72.36830902099609 25.25616455078125 74.29220581054688 C 30.15810394287109 76.28489685058594 35.3662109375 77.29526519775391 40.73579406738281 77.29526519775391 C 42.40553283691406 77.29526519775391 45.14910888671875 77.33667755126953 48.62259674072266 77.38911437988281 C 54.79848861694336 77.48232269287109 63.25664520263672 77.61000061035156 72.38742828369141 77.61000061035156 C 80.24855041503906 77.61000061035156 87.33354187011719 77.51222991943359 93.46166229248047 77.31927490234375 C 97.20152282714844 64.36770629882812 101.5929565429688 49.62359619140625 105.4756774902344 36.58747863769531 C 108.3018569946289 27.09867858886719 110.9712905883789 18.13611221313477 112.8808746337891 11.56589508056641 C 114.7167205810547 5.249351501464844 115.5176086425781 2.276802062988281 115.8292694091797 0.9530487060546875 C 110.5481338500977 0.775970458984375 103.1501007080078 0.689727783203125 93.27590942382812 0.689727783203125 M 93.27590179443359 -0.3102645874023438 C 102.5639801025391 -0.3102645874023438 111.0123138427734 -0.234375 116.9750442504883 -0.00658416748046875 C 117.7001800537109 0.02106475830078125 103.7834320068359 45.13537216186523 94.2208251953125 78.29526519775391 C 72.84849548339844 79.00341796875 47.62937927246094 78.29526519775391 40.73579406738281 78.29526519775391 C 18.23802947998047 78.29526519775391 0 60.76680374145508 0 39.14434051513672 C 0 17.52188110351562 18.23802947998047 -0.00658416748046875 40.73579406738281 -0.00658416748046875 C 52.78284454345703 -0.00658416748046875 74.70314788818359 -0.3102645874023438 93.27590179443359 -0.3102645874023438 Z" stroke="none"/>
    </g>
    <g transform="matrix(1, 0, 0, 1, 0, 0)" filter="url(#one-parallelogram)">
      <g id="one-parallelogram-3" data-name="one-parallelogram" transform="translate(0 0.31)" fill="#fff">
        <path d="M 72.38742828369141 78.11000061035156 C 63.25287628173828 78.11000061035156 54.79253768920898 77.98229217529297 48.61505889892578 77.88905334472656 C 45.14367294311523 77.83664703369141 42.40176773071289 77.79526519775391 40.73579788208008 77.79526519775391 C 35.30135345458984 77.79526519775391 30.02990531921387 76.77251434326172 25.06787490844727 74.75540161132812 C 20.27612113952637 72.80751037597656 15.97287464141846 70.01912689208984 12.27770519256592 66.46772766113281 C 8.583935737609863 62.91766357421875 5.684136390686035 58.78423309326172 3.658859252929688 54.1822509765625 C 1.562797665596008 49.41938781738281 0.4999977052211761 44.35991287231445 0.4999977052211761 39.14434051513672 C 0.4999977052211761 33.92877197265625 1.562797665596008 28.86929512023926 3.658859252929688 24.1064338684082 C 5.684136390686035 19.50444984436035 8.583935737609863 15.371018409729 12.27770519256592 11.82095718383789 C 15.97287464141846 8.269556999206543 20.27612113952637 5.481172561645508 25.06787490844727 3.533280372619629 C 30.02990531921387 1.516172647476196 35.30135345458984 0.4934187531471252 40.73579788208008 0.4934187531471252 C 46.112060546875 0.4934187531471252 53.28164291381836 0.43437260389328 61.58332061767578 0.3660187721252441 C 71.61752319335938 0.2833879888057709 82.99053955078125 0.1897264569997787 93.27590179443359 0.1897264569997787 C 103.5352096557617 0.1897264569997787 111.1242370605469 0.2828194499015808 116.4457626342773 0.4741412997245789 C 116.2548294067383 1.443044662475586 115.5239562988281 4.257962703704834 113.4250411987305 11.48506450653076 C 111.5097198486328 18.08000373840332 108.8115539550781 27.13898849487305 105.9549789428711 36.72986602783203 C 102.0375289916992 49.88256072998047 97.60221099853516 64.77398681640625 93.84117889404297 77.80741882324219 C 87.62527465820312 78.00821685791016 80.40981292724609 78.11000061035156 72.38742828369141 78.11000061035156 Z" stroke="none"/>
        <path d="M 93.27590942382812 0.689727783203125 C 82.99258422851562 0.689727783203125 71.62067413330078 0.7833709716796875 61.58742904663086 0.8660049438476562 C 53.28464508056641 0.9343719482421875 46.11410522460938 0.9934158325195312 40.73579406738281 0.9934158325195312 C 35.3662109375 0.9934158325195312 30.15810394287109 2.003791809082031 25.25616455078125 3.996482849121094 C 20.52342987060547 5.920372009277344 16.27341461181641 8.674201965332031 12.62418365478516 12.18144989013672 C 8.97772216796875 15.68603515625 6.115333557128906 19.76594161987305 4.116508483886719 24.30783462524414 C 2.048538208007812 29.0068359375 1 33.99855804443359 1 39.14434051513672 C 1 44.29012680053711 2.048538208007812 49.2818489074707 4.116508483886719 53.98085021972656 C 6.115333557128906 58.52274322509766 8.97772216796875 62.6026496887207 12.62418365478516 66.10723114013672 C 16.27341461181641 69.61447906494141 20.52342987060547 72.36830902099609 25.25616455078125 74.29220581054688 C 30.15810394287109 76.28489685058594 35.3662109375 77.29526519775391 40.73579406738281 77.29526519775391 C 42.40553283691406 77.29526519775391 45.14910888671875 77.33667755126953 48.62259674072266 77.38911437988281 C 54.79848861694336 77.48232269287109 63.25664520263672 77.61000061035156 72.38742828369141 77.61000061035156 C 80.24855041503906 77.61000061035156 87.33354187011719 77.51222991943359 93.46166229248047 77.31927490234375 C 97.20152282714844 64.36770629882812 101.5929565429688 49.62359619140625 105.4756774902344 36.58747863769531 C 108.3018569946289 27.09867858886719 110.9712905883789 18.13611221313477 112.8808746337891 11.56589508056641 C 114.7167205810547 5.249351501464844 115.5176086425781 2.276802062988281 115.8292694091797 0.9530487060546875 C 110.5481338500977 0.775970458984375 103.1501007080078 0.689727783203125 93.27590942382812 0.689727783203125 M 93.27590179443359 -0.3102645874023438 C 102.5639801025391 -0.3102645874023438 111.0123138427734 -0.234375 116.9750442504883 -0.00658416748046875 C 117.7001800537109 0.02106475830078125 103.7834320068359 45.13537216186523 94.2208251953125 78.29526519775391 C 72.84849548339844 79.00341796875 47.62937927246094 78.29526519775391 40.73579406738281 78.29526519775391 C 18.23802947998047 78.29526519775391 0 60.76680374145508 0 39.14434051513672 C 0 17.52188110351562 18.23802947998047 -0.00658416748046875 40.73579406738281 -0.00658416748046875 C 52.78284454345703 -0.00658416748046875 74.70314788818359 -0.3102645874023438 93.27590179443359 -0.3102645874023438 Z" stroke="none"/>
      </g>
    </g>
    <g id="one-parallelogram-4" data-name="one-parallelogram" transform="translate(0 0.31)" fill="none">
      <path d="M 72.38742828369141 78.11000061035156 C 63.25287628173828 78.11000061035156 54.79253768920898 77.98229217529297 48.61505889892578 77.88905334472656 C 45.14367294311523 77.83664703369141 42.40176773071289 77.79526519775391 40.73579788208008 77.79526519775391 C 35.30135345458984 77.79526519775391 30.02990531921387 76.77251434326172 25.06787490844727 74.75540161132812 C 20.27612113952637 72.80751037597656 15.97287464141846 70.01912689208984 12.27770519256592 66.46772766113281 C 8.583935737609863 62.91766357421875 5.684136390686035 58.78423309326172 3.658859252929688 54.1822509765625 C 1.562797665596008 49.41938781738281 0.4999977052211761 44.35991287231445 0.4999977052211761 39.14434051513672 C 0.4999977052211761 33.92877197265625 1.562797665596008 28.86929512023926 3.658859252929688 24.1064338684082 C 5.684136390686035 19.50444984436035 8.583935737609863 15.371018409729 12.27770519256592 11.82095718383789 C 15.97287464141846 8.269556999206543 20.27612113952637 5.481172561645508 25.06787490844727 3.533280372619629 C 30.02990531921387 1.516172647476196 35.30135345458984 0.4934187531471252 40.73579788208008 0.4934187531471252 C 46.112060546875 0.4934187531471252 53.28164291381836 0.43437260389328 61.58332061767578 0.3660187721252441 C 71.61752319335938 0.2833879888057709 82.99053955078125 0.1897264569997787 93.27590179443359 0.1897264569997787 C 103.5352096557617 0.1897264569997787 111.1242370605469 0.2828194499015808 116.4457626342773 0.4741412997245789 C 116.2548294067383 1.443044662475586 115.5239562988281 4.257962703704834 113.4250411987305 11.48506450653076 C 111.5097198486328 18.08000373840332 108.8115539550781 27.13898849487305 105.9549789428711 36.72986602783203 C 102.0375289916992 49.88256072998047 97.60221099853516 64.77398681640625 93.84117889404297 77.80741882324219 C 87.62527465820312 78.00821685791016 80.40981292724609 78.11000061035156 72.38742828369141 78.11000061035156 Z" stroke="none"/>
      <path d="M 93.27590942382812 0.689727783203125 C 82.99258422851562 0.689727783203125 71.62067413330078 0.7833709716796875 61.58742904663086 0.8660049438476562 C 53.28464508056641 0.9343719482421875 46.11410522460938 0.9934158325195312 40.73579406738281 0.9934158325195312 C 35.3662109375 0.9934158325195312 30.15810394287109 2.003791809082031 25.25616455078125 3.996482849121094 C 20.52342987060547 5.920372009277344 16.27341461181641 8.674201965332031 12.62418365478516 12.18144989013672 C 8.97772216796875 15.68603515625 6.115333557128906 19.76594161987305 4.116508483886719 24.30783462524414 C 2.048538208007812 29.0068359375 1 33.99855804443359 1 39.14434051513672 C 1 44.29012680053711 2.048538208007812 49.2818489074707 4.116508483886719 53.98085021972656 C 6.115333557128906 58.52274322509766 8.97772216796875 62.6026496887207 12.62418365478516 66.10723114013672 C 16.27341461181641 69.61447906494141 20.52342987060547 72.36830902099609 25.25616455078125 74.29220581054688 C 30.15810394287109 76.28489685058594 35.3662109375 77.29526519775391 40.73579406738281 77.29526519775391 C 42.40553283691406 77.29526519775391 45.14910888671875 77.33667755126953 48.62259674072266 77.38911437988281 C 54.79848861694336 77.48232269287109 63.25664520263672 77.61000061035156 72.38742828369141 77.61000061035156 C 80.24855041503906 77.61000061035156 87.33354187011719 77.51222991943359 93.46166229248047 77.31927490234375 C 97.20152282714844 64.36770629882812 101.5929565429688 49.62359619140625 105.4756774902344 36.58747863769531 C 108.3018569946289 27.09867858886719 110.9712905883789 18.13611221313477 112.8808746337891 11.56589508056641 C 114.7167205810547 5.249351501464844 115.5176086425781 2.276802062988281 115.8292694091797 0.9530487060546875 C 110.5481338500977 0.775970458984375 103.1501007080078 0.689727783203125 93.27590942382812 0.689727783203125 M 93.27590179443359 -0.3102645874023438 C 102.5639801025391 -0.3102645874023438 111.0123138427734 -0.234375 116.9750442504883 -0.00658416748046875 C 117.7001800537109 0.02106475830078125 103.7834320068359 45.13537216186523 94.2208251953125 78.29526519775391 C 72.84849548339844 79.00341796875 47.62937927246094 78.29526519775391 40.73579406738281 78.29526519775391 C 18.23802947998047 78.29526519775391 0 60.76680374145508 0 39.14434051513672 C 0 17.52188110351562 18.23802947998047 -0.00658416748046875 40.73579406738281 -0.00658416748046875 C 52.78284454345703 -0.00658416748046875 74.70314788818359 -0.3102645874023438 93.27590179443359 -0.3102645874023438 Z" stroke="none" fill="#c9c9c9"/>
    </g>
  </g>
</svg>
